<svg xmlns="http://www.w3.org/2000/svg" viewBox="0 0 512 512">
  <defs>
    <linearGradient id="grad1" x1="0%" y1="0%" x2="100%" y2="100%">
      <stop offset="0%" stop-color="#06b6d4" />
      <stop offset="100%" stop-color="#3b82f6" />
    </linearGradient>
  </defs>
  <rect width="512" height="512" rx="100" fill="#0f172a" />
  <path d="M100 256 L180 256 L230 140 L300 390 L350 256 L412 256" fill="none" stroke="url(#grad1)" stroke-width="40" stroke-linecap="round" stroke-linejoin="round" />
  <circle cx="100" cy="256" r="28" fill="#06b6d4" />
  <circle cx="412" cy="256" r="28" fill="#3b82f6" />
  <circle cx="300" cy="390" r="16" fill="#06b6d4" />
  <circle cx="230" cy="140" r="16" fill="#3b82f6" />
  
  <!-- AI Sparkles -->
  <path d="M400 100 L410 80 L420 100 L440 110 L420 120 L410 140 L400 120 L380 110 Z" fill="#3b82f6" opacity="0.8" />
  <path d="M120 120 L125 105 L130 120 L145 125 L130 130 L125 145 L120 130 L105 125 Z" fill="#06b6d4" opacity="0.6" />
</svg>